<?xml version="1.0" encoding="UTF-8" standalone="no"?>
<!-- Created with Inkscape (http://www.inkscape.org/) -->

<svg
   xmlns:dc="http://purl.org/dc/elements/1.1/"
   xmlns:cc="http://creativecommons.org/ns#"
   xmlns:rdf="http://www.w3.org/1999/02/22-rdf-syntax-ns#"
   xmlns:svg="http://www.w3.org/2000/svg"
   xmlns="http://www.w3.org/2000/svg"
   xmlns:sodipodi="http://sodipodi.sourceforge.net/DTD/sodipodi-0.dtd"
   xmlns:inkscape="http://www.inkscape.org/namespaces/inkscape"
   width="297mm"
   height="210mm"
   viewBox="0 0 297 210"
   version="1.1"
   id="svg8"
   inkscape:version="0.92.3 (2405546, 2018-03-11)"
   sodipodi:docname="pizzaria.svg">
  <defs
     id="defs2" />
  <sodipodi:namedview
     id="base"
     pagecolor="#ffffff"
     bordercolor="#666666"
     borderopacity="1.0"
     inkscape:pageopacity="0.0"
     inkscape:pageshadow="2"
     inkscape:zoom="0.65566779"
     inkscape:cx="561.25984"
     inkscape:cy="323.19899"
     inkscape:document-units="mm"
     inkscape:current-layer="layer1"
     showgrid="false"
     inkscape:window-width="1373"
     inkscape:window-height="845"
     inkscape:window-x="67"
     inkscape:window-y="27"
     inkscape:window-maximized="1" />
  <metadata
     id="metadata5">
    <rdf:RDF>
      <cc:Work
         rdf:about="">
        <dc:format>image/svg+xml</dc:format>
        <dc:type
           rdf:resource="http://purl.org/dc/dcmitype/StillImage" />
        <dc:title></dc:title>
      </cc:Work>
    </rdf:RDF>
  </metadata>
  <g
     inkscape:label="Camada 1"
     inkscape:groupmode="layer"
     id="layer1"
     transform="translate(0,-87)">
    <rect
       style="opacity:0.68000034;fill:#374845;fill-opacity:1;stroke:none;stroke-width:1.07665849;stroke-miterlimit:4;stroke-dasharray:none;stroke-opacity:1"
       id="rect1021"
       width="292.56116"
       height="201.7663"
       x="0.80706501"
       y="89.18071"
       ry="0.46479097" />
    <rect
       style="opacity:0.68000034;fill:#808000;fill-opacity:1;stroke:none;stroke-width:1.06500006;stroke-miterlimit:4;stroke-dasharray:none;stroke-opacity:1"
       id="rect817-3-5"
       width="51.652176"
       height="34.300274"
       x="192.08153"
       y="119.64742"
       ry="0.45921353"
       inkscape:transform-center-x="-3.6317935"
       inkscape:transform-center-y="-37.528537" />
    <rect
       style="opacity:0.68000034;fill:#808000;fill-opacity:1;stroke:none;stroke-width:1.06500006;stroke-miterlimit:4;stroke-dasharray:none;stroke-opacity:1"
       id="rect817"
       width="51.652176"
       height="34.30027"
       x="98.865486"
       y="118.23507"
       ry="0.45921347" />
    <rect
       style="opacity:0.68000034;fill:#808000;fill-opacity:1;stroke:none;stroke-width:1.06500006;stroke-miterlimit:4;stroke-dasharray:none;stroke-opacity:1"
       id="rect817-3"
       width="51.652176"
       height="34.300274"
       x="97.20562"
       y="168.46347"
       ry="0.4592135"
       inkscape:transform-center-x="-3.6317935"
       inkscape:transform-center-y="-37.528537" />
    <rect
       style="opacity:0.68000034;fill:#808000;fill-opacity:1;stroke:none;stroke-width:1.06500006;stroke-miterlimit:4;stroke-dasharray:none;stroke-opacity:1"
       id="rect817-3-6"
       width="51.652176"
       height="34.300274"
       x="97.609146"
       y="225.50623"
       ry="0.45921353"
       inkscape:transform-center-x="-3.6317935"
       inkscape:transform-center-y="-37.528537" />
    <text
       xml:space="preserve"
       style="font-style:normal;font-weight:normal;font-size:10.58333302px;line-height:1.25;font-family:sans-serif;letter-spacing:0px;word-spacing:0px;fill:#000000;fill-opacity:1;stroke:none;stroke-width:0.26458332"
       x="188.85327"
       y="117.45464"
       id="text857"><tspan
         sodipodi:role="line"
         id="tspan855"
         x="188.85327"
         y="117.45464"
         style="font-size:8.46666622px;stroke-width:0.26458332;fill:#ffd42a">/compra/resumo</tspan></text>
    <text
       xml:space="preserve"
       style="font-style:normal;font-weight:normal;font-size:10.58333302px;line-height:1.25;font-family:sans-serif;letter-spacing:0px;word-spacing:0px;fill:#000000;fill-opacity:1;stroke:none;stroke-width:0.26458332"
       x="105.5249"
       y="116.34145"
       id="text857-5"><tspan
         sodipodi:role="line"
         id="tspan855-3"
         x="105.5249"
         y="116.34145"
         style="font-size:8.46666622px;stroke-width:0.26458332;fill:#ffd42a">/compra</tspan></text>
    <text
       xml:space="preserve"
       style="font-style:normal;font-weight:normal;font-size:10.58333302px;line-height:1.25;font-family:sans-serif;letter-spacing:0px;word-spacing:0px;fill:#000000;fill-opacity:1;stroke:none;stroke-width:0.26458332"
       x="27.920967"
       y="151.65436"
       id="text857-5-6"><tspan
         sodipodi:role="line"
         id="tspan855-3-2"
         x="27.920967"
         y="151.65436"
         style="font-size:8.46666622px;stroke-width:0.26458332;fill:#ffd42a">/</tspan></text>
    <text
       xml:space="preserve"
       style="font-style:normal;font-weight:normal;font-size:10.58333302px;line-height:1.25;font-family:sans-serif;letter-spacing:0px;word-spacing:0px;fill:#000000;fill-opacity:1;stroke:none;stroke-width:0.26458332"
       x="97.820793"
       y="168.08119"
       id="text857-5-9"><tspan
         sodipodi:role="line"
         id="tspan855-3-1"
         x="97.820793"
         y="168.08119"
         style="font-size:8.46666622px;stroke-width:0.26458332;fill:#ffdd55">/lista_pedidos</tspan></text>
    <text
       xml:space="preserve"
       style="font-style:normal;font-weight:normal;font-size:10.58333302px;line-height:1.25;font-family:sans-serif;letter-spacing:0px;word-spacing:0px;fill:#000000;fill-opacity:1;stroke:none;stroke-width:0.26458332"
       x="96.206665"
       y="224.72041"
       id="text857-5-2"><tspan
         sodipodi:role="line"
         id="tspan855-3-7"
         x="96.206665"
         y="224.72041"
         style="font-size:8.46666622px;stroke-width:0.26458332;fill:#ffcc00">/admin/cadastrar/produtos</tspan></text>
    <rect
       style="opacity:0.68000034;fill:#808000;fill-opacity:1;stroke:none;stroke-width:1.06500006;stroke-miterlimit:4;stroke-dasharray:none;stroke-opacity:1"
       id="rect817-9"
       width="51.652176"
       height="34.300274"
       x="4.4388571"
       y="162.42188"
       ry="0.4592135" />
    <path
       style="opacity:0.68000016;fill:#808000;fill-opacity:1;stroke:none;stroke-width:1.06500006;stroke-miterlimit:4;stroke-dasharray:none;stroke-opacity:1"
       id="path968"
       d="m 61.57809,165.60074 c 1.198229,-0.83318 2.439881,-1.59878 3.644685,-2.42283 2.160807,-1.4238 4.130223,-3.10541 6.075141,-4.80491 1.623774,-1.44783 3.252663,-2.89293 5.051911,-4.12051 1.871189,-1.07973 3.741828,-2.16041 5.613567,-3.23919 3.216251,-1.85368 -6.252271,3.66656 -3.117596,1.77079 0.213204,-0.12895 0.424601,-0.26099 0.640688,-0.38504 1.894258,-1.08739 3.793467,-2.16613 5.690201,-3.2492 1.78608,-1.00458 5.195184,-2.90657 -2.925249,1.68224 -0.194061,0.10967 0.37887,-0.23494 0.568163,-0.35264 0.670388,-0.41684 0.375468,-0.22858 1.018292,-0.65175 0.908044,-0.64057 1.799285,-1.30501 2.719601,-1.9279 0.63862,-0.42535 1.27071,-0.8603 1.90222,-1.29608 0,0 5.399923,-2.12567 5.399923,-2.12567 v 0 c -0.614661,0.43252 -1.239552,0.84972 -1.847728,1.29136 -0.933977,0.59672 -1.817939,1.26792 -2.715276,1.91675 -2.735466,1.91806 -5.72027,3.46585 -8.633518,5.09606 1.417047,-0.82522 2.833007,-1.6523 4.251137,-2.47566 0.212847,-0.12357 -0.424474,0.24927 -0.635262,0.37632 -0.204406,0.12322 -0.404209,0.25407 -0.610285,0.37447 -1.859767,1.08657 -3.722923,2.16735 -5.587085,3.24637 -0.212592,0.12305 -0.854768,0.48445 -0.643104,0.3598 1.428565,-0.84128 2.86263,-1.67319 4.293947,-2.50979 -1.891543,1.17112 -3.572822,2.6319 -5.23277,4.10651 -1.919555,1.66599 -3.812011,3.37851 -5.918772,4.81003 -1.135967,0.79793 -2.293173,1.55695 -3.449489,2.32199 0,0 -5.553342,2.20848 -5.553342,2.20848 z"
       inkscape:connector-curvature="0" />
    <path
       style="opacity:0.68000034;fill:#808000;fill-opacity:1;stroke:none;stroke-width:1.28577936;stroke-miterlimit:4;stroke-dasharray:none;stroke-opacity:1"
       id="path968-3"
       d="m 56.091034,196.72215 c 1.281917,1.17075 2.620961,2.26047 3.911408,3.42035 2.320312,2.01189 4.393205,4.33037 6.436079,6.66902 1.702394,1.98904 3.410945,3.97515 5.338424,5.70345 2.026042,1.54873 4.051348,3.09861 6.078123,4.64619 3.482653,2.65923 -6.763263,-5.2491 -3.378668,-2.5448 0.230202,0.18395 0.457994,0.37162 0.692034,0.54965 2.051635,1.5607 4.109888,3.11095 6.164833,4.66642 1.936729,1.44541 5.635069,4.18474 -3.167954,-2.41393 -0.210373,-0.1577 0.408441,0.33419 0.612475,0.50156 0.722592,0.59276 0.405238,0.32583 1.095558,0.92384 0.970465,0.8988 1.919071,1.82608 2.905525,2.70377 0.685266,0.60035 1.362,1.21219 2.037981,1.825 0,0 5.954875,3.21893 5.954875,3.21893 v 0 c -0.657032,-0.60703 -1.327456,-1.19574 -1.976062,-1.81364 -1.004962,-0.846 -1.944492,-1.78109 -2.901787,-2.68926 -2.924777,-2.69292 -6.175639,-4.94297 -9.33552,-7.29002 1.533492,1.18239 3.065536,2.367 4.600472,3.54713 0.230379,0.17711 -0.459128,-0.3568 -0.686768,-0.53811 -0.220746,-0.17584 -0.435388,-0.36085 -0.658354,-0.5333 -2.012208,-1.55623 -4.028931,-3.10549 -6.046997,-4.65263 -0.230144,-0.17643 -0.926464,-0.69639 -0.697557,-0.51802 1.544936,1.20379 3.097196,2.3963 4.645796,3.59446 -2.039386,-1.66615 -3.806252,-3.67725 -5.547169,-5.70369 -2.017471,-2.29382 -3.998815,-4.64371 -6.256363,-6.65999 -1.214428,-1.12008 -2.457437,-2.19312 -3.698771,-3.27369 0,0 -6.121613,-3.33869 -6.121613,-3.33869 z"
       inkscape:connector-curvature="0" />
    <path
       style="opacity:0.68000034;fill:#808000;fill-opacity:1;stroke:none;stroke-width:1.10655499;stroke-miterlimit:4;stroke-dasharray:none;stroke-opacity:1"
       id="path968-3-6"
       d="m 56.855558,177.2273 c 1.432075,0.60847 2.897407,1.14276 4.33473,1.74109 2.567504,1.01982 4.980791,2.3272 7.371459,3.65651 2.001439,1.13832 4.007793,2.27304 6.153699,3.16357 2.194163,0.73231 4.387922,1.46565 6.582488,2.19692 3.770969,1.25655 -7.342648,-2.50477 -3.650336,-1.19239 0.251133,0.0893 0.500936,0.18191 0.754199,0.26585 2.220135,0.73577 4.443882,1.46215 6.665825,2.19323 2.089399,0.67337 6.074503,1.94341 -3.429068,-1.1392 -0.227115,-0.0737 0.447376,0.16434 0.670958,0.24676 0.79182,0.2919 0.442548,0.15868 1.206286,0.46168 1.087005,0.47014 2.160707,0.96674 3.257383,1.41731 0.759686,0.30588 1.514264,0.62237 2.268383,0.93977 0,0 6.143171,1.13863 6.143171,1.13863 v 0 c -0.73559,-0.31717 -1.479126,-0.61746 -2.209574,-0.94475 -1.106202,-0.4224 -2.173458,-0.92694 -3.250661,-1.4071 -3.272366,-1.40483 -6.739083,-2.40117 -10.145479,-3.49128 1.663072,0.562 3.325343,1.12602 4.989212,1.686 0.249728,0.084 -0.498567,-0.17039 -0.746771,-0.25822 -0.240692,-0.0852 -0.477948,-0.17869 -0.719877,-0.26081 -2.183329,-0.74105 -4.369156,-1.47581 -6.555716,-2.20866 -0.249359,-0.0836 -1.000631,-0.32588 -0.751954,-0.24057 1.678373,0.57577 3.360803,1.14135 5.041208,1.71203 -2.233214,-0.81867 -4.298227,-1.95957 -6.34321,-3.11785 -2.357327,-1.30081 -4.694731,-2.65221 -7.206279,-3.68917 -1.359195,-0.58478 -2.733541,-1.1275 -4.10809,-1.67631 0,0 -6.321986,-1.19304 -6.321986,-1.19304 z"
       inkscape:connector-curvature="0" />
    <path
       style="opacity:0.68000034;fill:#808000;fill-opacity:1;stroke:none;stroke-width:1.12042117;stroke-miterlimit:4;stroke-dasharray:none;stroke-opacity:1"
       id="path968-0"
       d="m 150.18557,136.64306 c 1.57247,-0.33379 3.16209,-0.58877 4.73759,-0.91166 2.80362,-0.52877 5.51528,-1.36768 8.20901,-2.23225 2.26073,-0.74873 4.52562,-1.49303 6.87723,-1.9724 2.36543,-0.31541 4.73069,-0.6319 7.09631,-0.94623 4.06488,-0.5401 -7.92767,1.10859 -3.9296,0.49933 0.27194,-0.0414 0.54327,-0.0864 0.81617,-0.12226 2.39229,-0.31405 4.78616,-0.61823 7.17925,-0.92735 2.24724,-0.27685 6.53027,-0.79091 -3.69558,0.48778 -0.24439,0.0306 0.48559,-0.079 0.72833,-0.11882 0.85968,-0.14091 0.4795,-0.0744 1.31339,-0.23132 1.19537,-0.26148 2.3832,-0.55134 3.58399,-0.79187 0.83045,-0.1605 1.6581,-0.33234 2.48549,-0.50516 0,0 6.42294,0.0105 6.42294,0.0105 v 0 c -0.80873,0.17599 -1.62173,0.33397 -2.42748,0.52082 -1.20422,0.21117 -2.38728,0.51 -3.57502,0.7831 -3.59632,0.77688 -7.29843,1.11773 -10.96047,1.56154 1.79441,-0.24588 3.58846,-0.49388 5.38323,-0.73763 0.26938,-0.0366 -0.53836,0.0756 -0.80703,0.11616 -0.26055,0.0394 -0.51946,0.0875 -0.78058,0.12362 -2.35646,0.32597 -4.71405,0.64532 -7.07197,0.96266 -0.26889,0.0362 -1.07697,0.13592 -0.80837,0.0979 1.8128,-0.25657 3.62745,-0.5024 5.44118,-0.75361 -2.4236,0.3929 -4.74879,1.13251 -7.05765,1.89283 -2.65398,0.84274 -5.29903,1.73871 -8.05016,2.29455 -1.49404,0.32393 -2.99408,0.60386 -4.49565,0.88972 0,0 -6.61455,0.01 -6.61455,0.01 z"
       inkscape:connector-curvature="0" />
    <text
       xml:space="preserve"
       style="font-style:normal;font-weight:normal;font-size:22.3174572px;line-height:1.25;font-family:sans-serif;letter-spacing:0px;word-spacing:0px;fill:#dbe3db;fill-opacity:1;stroke:none;stroke-width:0.55793637"
       x="20.470812"
       y="95.072968"
       id="text1019"
       transform="scale(0.83685321,1.1949527)"><tspan
         sodipodi:role="line"
         id="tspan1017"
         x="20.470812"
         y="95.072968"
         style="fill:#dbe3db;stroke-width:0.55793637">Pizzaria</tspan></text>
  </g>
</svg>
